<?xml version="1.0" encoding="iso-8859-1"?>
<!-- Generator: Adobe Illustrator 16.0.0, SVG Export Plug-In . SVG Version: 6.00 Build 0)  -->
<!DOCTYPE svg PUBLIC "-//W3C//DTD SVG 1.1//EN" "http://www.w3.org/Graphics/SVG/1.1/DTD/svg11.dtd">
<svg xmlns="http://www.w3.org/2000/svg" xmlns:xlink="http://www.w3.org/1999/xlink" version="1.1" id="Capa_1" x="0px" y="0px" width="512px" height="512px" viewBox="0 0 358.618 358.619" style="enable-background:new 0 0 358.618 358.619;" xml:space="preserve">
<g>
	<g>
		<g>
			<path d="M201.473,235.099v9.439c39.812-39.739,34.912-77.435,34.84-77.815l-1.152-26.719c-3.897-6.125-7.542-9.223-10.869-9.223     c-5.608,0-10.904,9.974-12.958,16.258v1.465l-1.381-0.604l-3.423,0.03l-0.066-1.021c-3.681-61.18-40.848-97.725-99.421-97.725     C42.028,49.185,0,91.735,0,157.578c0,51.113,27.94,101.277,69.527,124.804l1.249,0.708v55.269h109.056v-58.595l0.639-0.673     c6.789-7.5,12.091-17.186,16.216-29.591L201.473,235.099z M176.316,320.47h-53.467v-23.569h53.467V320.47z" fill="#FFFFFF"/>
		</g>
		<g>
			<path d="M251.583,20.26c-34.678,0-62.146,12.7-79.548,36.728c23.758,15.817,38.41,41.94,42.541,75.787     c3.087-5.561,7.675-10.959,13.787-10.959c5.248,0,10.413,4.06,15.372,12.07l0.343,0.832l1.183,27.478     c0.072,0.27,5.855,42.4-40.076,85.442c-2.605,7.747-5.674,14.424-9.355,20.356h39.969v23.551h-47v17.895h99.025V254.17     l1.272-0.696c41.577-23.515,69.523-73.685,69.523-124.807C358.631,62.813,316.615,20.26,251.583,20.26z" fill="#FFFFFF"/>
		</g>
	</g>
</g>
<g>
</g>
<g>
</g>
<g>
</g>
<g>
</g>
<g>
</g>
<g>
</g>
<g>
</g>
<g>
</g>
<g>
</g>
<g>
</g>
<g>
</g>
<g>
</g>
<g>
</g>
<g>
</g>
<g>
</g>
</svg>
